<svg xmlns="http://www.w3.org/2000/svg" width="512" height="512" fill="none"><style>@media (prefers-color-scheme:dark){.bg{fill:#0b0b09}.fg{fill:#bcbcae}}</style><path fill="#F6F6F4" d="M0 0h512v512H0V0Z" class="bg"/><path fill="#686855" fill-rule="evenodd" d="M354 143.5h-93.5v226h97c48.5 0 76-31 76-67 0-21.5-11-44.5-26-54 0 0 17-17.5 17-46 0-36.5-30-59-70.5-59Zm5.5 37h-58v55h58c13-1 23-14 23-27.5.406-10.291-6.549-26.157-23-27.5Zm-58 90h64c11.456 1.494 24.401 8.943 24.994 30.75-.593 21.807-13.538 29.256-24.994 30.75h-64v-61.5Z" class="fg" clip-rule="evenodd"/><path fill="#686855" d="M236 143.5H78.5v226h157v-38h-115v-59h85v-38h-85v-53h115l.5-38Z" class="fg"/></svg>